<svg xmlns="http://www.w3.org/2000/svg" width="300" height="420" viewBox="0 0 300 420">
  <defs>
    <linearGradient id="bg" x1="0" y1="0" x2="1" y2="1">
      <stop offset="0%" stop-color="#FF8C00"/>
      <stop offset="100%" stop-color="#FF4500"/>
    </linearGradient>
    <linearGradient id="shine" x1="0" y1="0" x2="0.5" y2="0.5">
      <stop offset="0%" stop-color="rgba(255,255,255,0.15)"/>
      <stop offset="100%" stop-color="rgba(255,255,255,0)"/>
    </linearGradient>
  </defs>
  <rect width="300" height="420" rx="12" fill="url(#bg)"/>
  <rect width="300" height="420" rx="12" fill="url(#shine)"/>
  <rect x="20" y="20" width="260" height="380" rx="8" fill="rgba(255,255,255,0.08)" stroke="rgba(255,255,255,0.2)" stroke-width="1"/>
  <g opacity="0.06" transform="translate(150,210) scale(0.8)">
    <polygon points="0,-60 -20,-20 -40,-20 0,0" fill="white"/>
    <polygon points="0,-60 20,-20 40,-20 0,0" fill="white"/>
  </g>
  <text x="150" y="100" text-anchor="middle" font-family="Arial,sans-serif" font-size="14" fill="rgba(255,255,255,0.7)" letter-spacing="3">CLASS 2</text>
  <text x="150" y="180" text-anchor="middle" font-family="Arial,sans-serif" font-size="28" font-weight="bold" fill="white">Social Studies</text>
  <rect x="100" y="200" width="100" height="2" rx="1" fill="rgba(255,255,255,0.3)"/>
  <text x="150" y="230" text-anchor="middle" font-family="Arial,sans-serif" font-size="11" fill="rgba(255,255,255,0.6)">Curriculum Development Centre</text>
  <text x="150" y="250" text-anchor="middle" font-family="Arial,sans-serif" font-size="10" fill="rgba(255,255,255,0.5)">Government of Nepal</text>
  <rect x="0" y="380" width="300" height="40" rx="0 0 12 12" fill="rgba(0,0,0,0.2)"/>
  <text x="150" y="405" text-anchor="middle" font-family="Arial,sans-serif" font-size="10" fill="rgba(255,255,255,0.5)">Ministry of Education, Science and Technology</text>
</svg>
